<?xml version="1.0" encoding="utf-8"?>
<!-- Generator: Adobe Illustrator 16.0.0, SVG Export Plug-In . SVG Version: 6.00 Build 0)  -->
<!DOCTYPE svg PUBLIC "-//W3C//DTD SVG 1.1//EN" "http://www.w3.org/Graphics/SVG/1.1/DTD/svg11.dtd">
<svg version="1.1" id="Layer_1" xmlns="http://www.w3.org/2000/svg" xmlns:xlink="http://www.w3.org/1999/xlink" x="0px" y="0px"
	 width="64px" height="64px" viewBox="0 0 64 64" enable-background="new 0 0 64 64" xml:space="preserve">
<g id="BIN_1_" enable-background="new    ">
	<g id="BIN">
		<g>
			<path d="M53,9H38V6c0-1.657-1.343-3-3-3h-6c-1.657,0-3,1.343-3,3v3H11c-1.657,0-3,1.343-3,3v3h48v-3C56,10.343,54.657,9,53,9z
				 M11,58c0,1.657,1.343,3,3,3h36c1.657,0,3-1.343,3-3V18H11V58z M41,27c0-1.657,1.343-3,3-3s3,1.343,3,3v25c0,1.657-1.343,3-3,3
				s-3-1.343-3-3V27z M29,27c0-1.657,1.343-3,3-3s3,1.343,3,3v25c0,1.657-1.343,3-3,3s-3-1.343-3-3V27z M17,27c0-1.657,1.343-3,3-3
				s3,1.343,3,3v25c0,1.657-1.343,3-3,3s-3-1.343-3-3V27z"/>
		</g>
	</g>
</g>
</svg>
