<?xml version="1.0" encoding="utf-8"?>
<!-- Generator: Adobe Illustrator 16.0.0, SVG Export Plug-In . SVG Version: 6.00 Build 0)  -->
<!DOCTYPE svg PUBLIC "-//W3C//DTD SVG 1.1//EN" "http://www.w3.org/Graphics/SVG/1.1/DTD/svg11.dtd">
<svg version="1.1" id="Layer_1" xmlns="http://www.w3.org/2000/svg" xmlns:xlink="http://www.w3.org/1999/xlink" x="0px" y="0px"
	 width="64px" height="64px" viewBox="0 0 64 64" enable-background="new 0 0 64 64" xml:space="preserve">
<g id="BLOCK_1_" enable-background="new    ">
	<g id="BLOCK">
		<g>
			<path d="M32,0C14.327,0,0,14.327,0,32s14.327,32,32,32s32-14.327,32-32S49.673,0,32,0z M32,58C17.641,58,6,46.359,6,32
				c0-6.098,2.115-11.694,5.63-16.128L48.128,52.37C43.693,55.886,38.098,58,32,58z M52.37,48.128L15.873,11.63
				C20.307,8.115,25.902,6,32,6c14.359,0,26,11.641,26,26C58,38.098,55.887,43.693,52.37,48.128z"/>
		</g>
	</g>
</g>
</svg>
