<?xml version="1.0" encoding="utf-8"?>
<!-- Generator: Adobe Illustrator 16.0.0, SVG Export Plug-In . SVG Version: 6.00 Build 0)  -->
<!DOCTYPE svg PUBLIC "-//W3C//DTD SVG 1.1//EN" "http://www.w3.org/Graphics/SVG/1.1/DTD/svg11.dtd">
<svg version="1.1" id="Layer_1" xmlns="http://www.w3.org/2000/svg" xmlns:xlink="http://www.w3.org/1999/xlink" x="0px" y="0px"
	 width="64px" height="64px" viewBox="0 0 64 64" enable-background="new 0 0 64 64" xml:space="preserve">
<g id="BOOK_2_1_" enable-background="new    ">
	<g id="BOOK_2">
		<g>
			<path d="M10.759,32.73L10.759,32.73l11,5l0,0C22.137,37.902,22.557,38,23,38c1.657,0,3-1.343,3-3
				c0-1.214-0.721-2.259-1.759-2.731l0,0l-11-5l0,0C12.863,27.097,12.443,27,12,27c-1.657,0-3,1.343-3,3
				C9,31.214,9.721,32.259,10.759,32.73z M10.759,43.73L10.759,43.73l11,5l0,0C22.137,48.902,22.557,49,23,49c1.657,0,3-1.343,3-3
				c0-1.214-0.721-2.259-1.759-2.73l0,0l-11-5l0,0C12.863,38.098,12.443,38,12,38c-1.657,0-3,1.343-3,3
				C9,42.214,9.721,43.259,10.759,43.73z M10.759,21.731L10.759,21.731l11,5l0,0C22.137,26.903,22.557,27,23,27c1.657,0,3-1.343,3-3
				c0-1.214-0.721-2.259-1.759-2.731l0,0l-11-5l0,0C12.863,16.097,12.443,16,12,16c-1.657,0-3,1.343-3,3
				C9,20.214,9.721,21.259,10.759,21.731z M41,49c0.443,0,0.863-0.098,1.241-0.27l0,0l11-5l0,0C54.279,43.259,55,42.214,55,41
				c0-1.657-1.343-3-3-3c-0.443,0-0.863,0.098-1.241,0.27l0,0l-11,5l0,0C38.721,43.741,38,44.786,38,46C38,47.657,39.343,49,41,49z
				 M61,0c-0.406,0-0.794,0.082-1.146,0.228l0,0L59.848,0.23c-0.009,0.004-0.018,0.007-0.027,0.011L32,11.753L4.179,0.241
				C4.17,0.237,4.161,0.234,4.152,0.23L4.147,0.228l0,0C3.794,0.082,3.406,0,3,0C1.343,0,0,1.343,0,3v46
				c0,1.257,0.774,2.333,1.871,2.779l28.942,11.977C31.177,63.913,31.578,64,32,64s0.823-0.087,1.188-0.245l28.941-11.976
				C63.227,51.333,64,50.257,64,49V3C64,1.343,62.657,0,61,0z M29,56.512L6,46.995V7.488l23,9.517V56.512z M58,46.995l-23,9.517
				V17.005l23-9.517V46.995z M41,38c0.443,0,0.863-0.098,1.241-0.27l0,0l11-5C54.279,32.259,55,31.214,55,30c0-1.657-1.343-3-3-3
				c-0.443,0-0.863,0.097-1.241,0.269l0,0l-11,5l0,0C38.721,32.741,38,33.786,38,35C38,36.657,39.343,38,41,38z M41,27
				c0.443,0,0.863-0.097,1.241-0.269l0,0l11-5l0,0C54.279,21.259,55,20.214,55,19c0-1.657-1.343-3-3-3
				c-0.443,0-0.863,0.097-1.241,0.269l0,0l-11,5C38.721,21.741,38,22.786,38,24C38,25.657,39.343,27,41,27z"/>
		</g>
	</g>
</g>
</svg>
