<!-- Generator: Adobe Illustrator 19.2.0, SVG Export Plug-In  -->
<svg version="1.1"
	 xmlns="http://www.w3.org/2000/svg" xmlns:xlink="http://www.w3.org/1999/xlink" xmlns:a="http://ns.adobe.com/AdobeSVGViewerExtensions/3.0/"
	 x="0px" y="0px" width="64px" height="64px" viewBox="0 0 64 64" style="enable-background:new 0 0 64 64;" xml:space="preserve">
<defs>
</defs>
<g id="CIRCLE__x2F__RIGHT_1_">
	<path id="Shape_3_" d="M32,0C14.3,0,0,14.3,0,32s14.3,32,32,32s32-14.3,32-32S49.7,0,32,0L32,0z M6,32C6,17.6,17.6,6,32,6
		s26,11.6,26,26c0,14.4-11.6,26-26,26S6,46.4,6,32z"/>
	<path id="Shape_2_" d="M42,21c-1,0-2,0.5-2.5,1.3l-8.9,13l-5.4-5.4C24.6,29.3,23.8,29,23,29c-1.7,0-3,1.3-3,3
		c0,0.8,0.3,1.6,0.9,2.1l8,8c0.5,0.5,1.3,0.9,2.1,0.9c1,0,2-0.5,2.5-1.3l11-16c0.3-0.5,0.5-1.1,0.5-1.7C45,22.3,43.7,21,42,21L42,21
		z"/>
</g>
</svg>
