<!-- Generator: Adobe Illustrator 17.1.0, SVG Export Plug-In  -->
<svg version="1.1"
	 xmlns="http://www.w3.org/2000/svg" xmlns:xlink="http://www.w3.org/1999/xlink" xmlns:a="http://ns.adobe.com/AdobeSVGViewerExtensions/3.0/"
	 x="0px" y="0px" width="64px" height="64px" viewBox="0 0 64 64" enable-background="new 0 0 64 64" xml:space="preserve">
<defs>
</defs>
<path d="M32,0C14.3,0,0,14.3,0,32s14.3,32,32,32s32-14.3,32-32S49.7,0,32,0z M32,58C17.6,58,6,46.4,6,32S17.6,6,32,6s26,11.6,26,26
	S46.4,58,32,58z"/>
<path d="M43.3,32C43.3,32,43.3,32,43.3,32C43.3,32,43.3,32,43.3,32c0-0.7-0.3-1.2-0.7-1.7l0,0L28.9,16.6l0,0c-0.4-0.4-1-0.6-1.6-0.6
	c-1.3,0-2.3,1-2.3,2.3c0,0.7,0.3,1.3,0.8,1.7l12,12L25.6,44.1l0,0c-0.4,0.4-0.6,1-0.6,1.6c0,1.3,1,2.3,2.3,2.3
	c0.6,0,1.2-0.2,1.6-0.6l0,0l13.7-13.7l0,0C43,33.2,43.3,32.6,43.3,32z"/>
</svg>
