<!-- Generator: Adobe Illustrator 17.1.0, SVG Export Plug-In  -->
<svg version="1.1"
	 xmlns="http://www.w3.org/2000/svg" xmlns:xlink="http://www.w3.org/1999/xlink" xmlns:a="http://ns.adobe.com/AdobeSVGViewerExtensions/3.0/"
	 x="0px" y="0px" width="64px" height="64px" viewBox="0 0 64 64" enable-background="new 0 0 64 64" xml:space="preserve">
<defs>
</defs>
<path d="M27,45V19c0-1.7-1.3-3-3-3s-3,1.3-3,3v26c0,1.7,1.3,3,3,3S27,46.7,27,45z"/>
<path d="M32,0C14.3,0,0,14.3,0,32s14.3,32,32,32s32-14.3,32-32S49.7,0,32,0z M32,58C17.6,58,6,46.4,6,32S17.6,6,32,6s26,11.6,26,26
	S46.4,58,32,58z"/>
<path d="M42.5,45V19c0-1.7-1.3-3-3-3s-3,1.3-3,3v26c0,1.7,1.3,3,3,3S42.5,46.7,42.5,45z"/>
</svg>
