<?xml version="1.0" encoding="utf-8"?>
<!-- Generator: Adobe Illustrator 16.0.0, SVG Export Plug-In . SVG Version: 6.00 Build 0)  -->
<!DOCTYPE svg PUBLIC "-//W3C//DTD SVG 1.1//EN" "http://www.w3.org/Graphics/SVG/1.1/DTD/svg11.dtd">
<svg version="1.1" id="Layer_1" xmlns="http://www.w3.org/2000/svg" xmlns:xlink="http://www.w3.org/1999/xlink" x="0px" y="0px"
	 width="64px" height="64px" viewBox="0 0 64 64" enable-background="new 0 0 64 64" xml:space="preserve">
<g id="CODE_1_" enable-background="new    ">
	<g id="CODE">
		<g>
			<path d="M15.031,17c-0.844,0-1.604,0.352-2.149,0.913l-0.003-0.003L1.053,29.735C0.413,30.285,0,31.091,0,32
				c0,0.844,0.351,1.604,0.912,2.148L0.91,34.152l12,12l0.003-0.004C13.453,46.674,14.187,47,15,47c1.657,0,3-1.343,3-3
				c0-0.812-0.326-1.547-0.851-2.087l0.003-0.003l-9.894-9.895l9.863-9.863l-0.003-0.003c0.561-0.545,0.913-1.305,0.913-2.149
				C18.031,18.343,16.688,17,15.031,17z M64.031,32c0-0.91-0.413-1.715-1.053-2.265L51.152,17.91l-0.002,0.003
				C50.604,17.352,49.844,17,49,17c-1.657,0-3,1.343-3,3c0,0.844,0.352,1.604,0.913,2.149l-0.003,0.003l9.863,9.863l-9.895,9.895
				l0.003,0.003c-0.524,0.54-0.851,1.274-0.851,2.087c0,1.657,1.343,3,3,3c0.812,0,1.547-0.326,2.088-0.852l0.003,0.004l12-12
				l-0.003-0.004C63.68,33.604,64.031,32.844,64.031,32z M40,8c-1.3,0-2.406,0.827-2.823,1.982L21.2,51.924
				C21.071,52.258,21,52.621,21,53c0,1.657,1.343,3,3,3c1.3,0,2.406-0.827,2.823-1.982L42.8,12.076C42.93,11.742,43,11.38,43,11
				C43,9.343,41.657,8,40,8z"/>
		</g>
	</g>
</g>
</svg>
