<!-- Generator: Adobe Illustrator 19.2.0, SVG Export Plug-In  -->
<svg version="1.1"
	 xmlns="http://www.w3.org/2000/svg" xmlns:xlink="http://www.w3.org/1999/xlink" xmlns:a="http://ns.adobe.com/AdobeSVGViewerExtensions/3.0/"
	 x="0px" y="0px" width="64px" height="64px" viewBox="0 0 64 64" style="enable-background:new 0 0 64 64;" xml:space="preserve">
<defs>
</defs>
<g>
	<path d="M55.5,25.5c-0.5-2-1.3-3.8-2.3-5.5c1.1-1.5,5-7.1,2.2-9.9L54,8.5c-2.4-2.4-8.5,1.3-9.9,2.3c-1.7-1-3.6-1.8-5.6-2.3
		C38.1,6.6,36.7,0,32.8,0h-1.6c-3.4,0-5.3,6.8-5.7,8.5c-2,0.5-3.8,1.3-5.5,2.3c-1.4-1-7.2-5-10-2.2L8.5,9.9c-2.5,2.5,1.6,9,2.4,10.1
		c-1,1.7-1.7,3.5-2.2,5.4C7,25.8,0,27.1,0,31.2v1.6c0,3.5,7.3,5.4,8.7,5.8c0.5,1.9,1.3,3.7,2.3,5.4c-0.8,1.2-4.7,7.7-2.3,10.2
		l1.4,1.2c3.2,3.2,10-2.1,10-2.1l-0.3-0.3c1.8,1.1,3.7,1.9,5.8,2.5c0.3,1.4,2.3,8.7,5.8,8.7h1.6c4.6,0,5.7-8.5,5.7-8.5l-0.4,0
		c2.1-0.5,4-1.3,5.9-2.3c1.4,0.9,7.4,4.7,9.8,2.3l1.6-1.6c3.2-3.2-2-9.7-2.1-9.9c1-1.7,1.8-3.6,2.3-5.5c1.8-0.5,8.5-2.4,8.5-5.7
		v-1.6C64,26.7,56,25.5,55.5,25.5z M32,50c-9.9,0-18-8.1-18-18s8.1-18,18-18s18,8.1,18,18S41.9,50,32,50z"/>
	<path d="M32,20c-6.6,0-12,5.4-12,12c0,6.6,5.4,12,12,12s12-5.4,12-12S38.6,20,32,20z M32,38c-3.3,0-6-2.7-6-6s2.7-6,6-6s6,2.7,6,6
		S35.3,38,32,38z"/>
</g>
</svg>
