<!-- Generator: Adobe Illustrator 19.2.0, SVG Export Plug-In  -->
<svg version="1.1"
	 xmlns="http://www.w3.org/2000/svg" xmlns:xlink="http://www.w3.org/1999/xlink" xmlns:a="http://ns.adobe.com/AdobeSVGViewerExtensions/3.0/"
	 x="0px" y="0px" width="28px" height="15px" viewBox="0 0 28 15" style="enable-background:new 0 0 28 15;" xml:space="preserve">
<defs>
</defs>
<g>
	<path d="M2.1,13L2,2c0-0.9,1.1-1,1.1-1h13.4h4.3C20.3,0,19,0,19,0H3c0,0-2,0-2,2v11H0.3C0.1,13,0,13.1,0,13.3v1.4
		C0,14.9,0.1,15,0.3,15H14v-2H2.1z M12.5,14.5h-3C9.2,14.5,9,14.3,9,14c0-0.3,0.2-0.5,0.5-0.5h3c0.3,0,0.5,0.2,0.5,0.5
		C13,14.3,12.8,14.5,12.5,14.5z"/>
	<path d="M16,13c0,0,0-9.5,0-9.5c0,0,7,0,7,0c0,0,0,0.2,0,0.5h1V3c0-0.6-0.4-1-1-1h-7c-0.5,0-1,0.4-1,1v11c0,0.6,0.4,1,1,1h1.8H21
		v-2C18.9,13,16,13,16,13z M19.5,14.5c-0.3,0-0.5-0.2-0.5-0.5s0.2-0.5,0.5-0.5S20,13.7,20,14S19.8,14.5,19.5,14.5z"/>
	<path d="M27,5h-4c-0.5,0-1,0.4-1,1v8c0,0.6,0.4,1,1,1h4c0.5,0,1-0.4,1-1V6C28,5.4,27.6,5,27,5z M25,14.5c-0.3,0-0.5-0.2-0.5-0.5
		s0.2-0.5,0.5-0.5s0.5,0.2,0.5,0.5S25.3,14.5,25,14.5z M27,12.9c0,0-4,0-4,0c0,0,0-7,0-7c0,0,4,0,4,0C27,5.9,27,12.9,27,12.9z"/>
</g>
</svg>
