<?xml version="1.0" ?><!DOCTYPE svg  PUBLIC '-//W3C//DTD SVG 1.1//EN'  'http://www.w3.org/Graphics/SVG/1.1/DTD/svg11.dtd'><svg enable-background="new -240 -240 512 512" height="512px" id="Layer_1" version="1.1" viewBox="-240 -240 512 512" width="512px" xml:space="preserve" xmlns="http://www.w3.org/2000/svg" xmlns:xlink="http://www.w3.org/1999/xlink"><g><path d="M197.06-164.966c-100.078-99.929-262.05-99.929-362.12,0c-99.921,100.086-99.921,262.018,0,361.939   c100.086,99.922,262.058,99.922,362.12,0C296.98,97.052,296.98-64.896,197.06-164.966z M48.34,136.964   c-11.682,4.647-21.055,7.944-27.893,9.798c-7.026,1.884-12.938,2.826-17.923,2.826c-10.127,0-17.766-2.67-22.766-7.977   c-5.15-5.275-7.654-11.822-7.654-19.469c0-2.983,0.173-6.092,0.785-9.201c0.455-3.109,1.256-7.145,2.332-11.996l20.097-80.891   c1.099-4.515,2.025-9.374,2.976-14.359C-0.773,0.569-0.31-3.646-0.31-7.226c0-7.175-1.091-11.87-3.423-14.186   c-2.347-2.347-7.167-3.604-14.343-3.604c-2.811,0-6.54,0.471-11.061,1.405c-4.695,0.785-8.259,1.57-10.606,2.198l2.811-12.168   c9.97-4.357,18.857-7.638,26.661-9.805c7.937-2.19,14.013-3.281,18.692-3.281c10.292,0,17.938,2.488,22.617,7.474   c4.68,4.844,7.019,11.548,7.019,19.956c0,2.347-0.298,5.448-0.785,9.357c-0.472,3.886-1.24,7.78-2.183,11.847L14.802,82.858   c-1.248,4.993-2.332,9.798-3.273,14.508c-0.935,4.804-1.547,8.729-1.547,11.839c0,7.159,1.704,12.152,4.985,14.821   c3.117,2.638,8.408,4.051,15.568,4.051c2.355,0,5.777-0.345,10.299-1.099c4.522-0.629,7.961-1.24,10.301-2.199L48.34,136.964z    M57.682-99.658c-4.663,5.464-10.566,8.102-17.443,8.102c-6.531,0-12.152-2.654-16.848-7.78c-4.679-5.15-7.01-10.92-7.01-17.467   c0-7.018,2.332-13.079,7.01-18.386c4.695-5.15,10.316-7.803,16.848-7.803c7.159,0,13.094,2.48,17.616,7.332   c4.679,4.985,6.877,10.598,6.877,17.138C64.7-111.348,62.361-105.114,57.682-99.658z"/></g></svg>