<!-- Generator: Adobe Illustrator 19.2.0, SVG Export Plug-In  -->
<svg version="1.1"
	 xmlns="http://www.w3.org/2000/svg" xmlns:xlink="http://www.w3.org/1999/xlink" xmlns:a="http://ns.adobe.com/AdobeSVGViewerExtensions/3.0/"
	 x="0px" y="0px" width="194.8px" height="206.8px" viewBox="0 0 194.8 206.8" style="enable-background:new 0 0 194.8 206.8;"
	 xml:space="preserve">
<defs>
</defs>
<path id="XMLID_1_" d="M185.4,65.5L16.3,1.3C5.4-2.8-1.7,3.2,0.4,14.6l33.4,181.1c2.1,11.4,11,14.6,19.8,7l135.5-116
	C197.9,79.2,196.2,69.6,185.4,65.5z M67.4,135.9c0,5.1-1.6,9.1-4,11.7c-2.1,2.2-5.2,3.4-8.6,3.4c-3.2,0-6.3-0.5-8.1-1.4l-0.3-0.1
	v-9.3l0.5,0.1c2.2,0.6,3.4,0.6,4.8,0.6c4.1,0,4.7-4.1,4.7-6.5V71.4h11V135.9z M61.4,61.4c-4.4,0-8-3.6-8-8c0-4.6,3.6-8.3,8-8.3
	c4.6,0,8.3,3.6,8.3,8.3C69.7,57.9,66.1,61.4,61.4,61.4z M129.4,122.4h-11V95.9c0-7.3-2-15.9-12.2-15.9c-9.6,0-13.8,8.4-13.8,16.7
	v25.7h-11v-78h11v35.2c3-5.7,9.7-9,17.2-9c6.9,0,12.4,2.4,15.5,6.8c2.8,3.8,4.2,8.3,4.2,15.5V122.4z"/>
</svg>

