<!-- Generator: Adobe Illustrator 19.0.1, SVG Export Plug-In  -->
<svg version="1.1"
	 xmlns="http://www.w3.org/2000/svg" xmlns:xlink="http://www.w3.org/1999/xlink" xmlns:a="http://ns.adobe.com/AdobeSVGViewerExtensions/3.0/"
	 x="0px" y="0px" width="381px" height="78px" viewBox="0 0 381 78" style="enable-background:new 0 0 381 78;"
	 xml:space="preserve">
<style type="text/css">
	.st0{fill:#F24747;}
	.st1{fill:#FFFFFF;}
</style>
<defs>
</defs>
<path class="st0" d="M26.5,20.8v48.4c0,0.5,0.5,0.8,1,0.6l18.6-10.1c0.2-0.1,0.3-0.3,0.3-0.6V31.7c0-0.2-0.1-0.5-0.3-0.6L27.5,20.2
	C27.1,20,26.5,20.3,26.5,20.8z"/>
<path class="st0" d="M23.9,69.4V0.7c0-0.5-0.5-0.8-0.9-0.6L0.4,8.4C0.2,8.5,0,8.8,0,9v52.3c0,0.3,0.2,0.5,0.4,0.6L23,70
	C23.4,70.2,23.9,69.8,23.9,69.4z"/>
<g>
	<path class="st1" d="M84.5,25.4c7.9,0,12.1,3,12.1,10.3c0,4.8-1.5,7.2-4.7,8.9c3.4,1.3,5.7,3.8,5.7,9.2C97.6,61.9,92.7,65,85,65
		H69.5V25.4H84.5z M75.9,30.9v11.3h8.5c3.9,0,5.7-2,5.7-5.8c0-3.8-2-5.5-5.9-5.5H75.9z M75.9,47.7v11.7h8.7c4,0,6.4-1.3,6.4-6
		c0-4.5-3.4-5.7-6.5-5.7H75.9z"/>
	<path class="st1" d="M104.1,36.1h6.2v3.5c0,0,4.9-3.2,9.8-4.1v6.3c-5.3,1-9.8,3.1-9.8,3.1V65h-6.3V36.1z"/>
	<path class="st1" d="M149.2,50.3c0,9.6-3,15.3-12.9,15.3c-9.9,0-12.9-5.7-12.9-15.3c0-9.4,3.2-14.9,12.9-14.9S149.2,41,149.2,50.3z
		 M142.8,50.3c0-6.7-1.4-9.6-6.5-9.6s-6.5,2.9-6.5,9.6s1.2,10,6.5,10C141.7,60.3,142.8,57.1,142.8,50.3z"/>
	<path class="st1" d="M159.4,36.1l4.6,23.5h1.2l5.5-23h6.5l5.5,23h1.2l4.5-23.5h6.2L188.3,65h-10l-4.5-19.8L169.3,65h-10l-6.1-28.9
		H159.4z"/>
	<path class="st1" d="M219.9,42c0,0-6.8-0.9-10.3-0.9c-3.5,0-5,0.8-5,3.2c0,1.9,1.2,2.4,6.9,3.4c6.9,1.2,9.4,3,9.4,8.7
		c0,6.8-4.3,9.2-11.5,9.2c-4,0-10.7-1.3-10.7-1.3l0.2-5.3c0,0,6.9,0.9,9.9,0.9c4.2,0,5.8-0.9,5.8-3.4c0-2-1-2.7-6.7-3.6
		c-6.4-1-9.6-2.4-9.6-8.6c0-6.5,5.1-9,10.8-9c4.2,0,10.9,1.3,10.9,1.3L219.9,42z"/>
	<path class="st1" d="M249.2,59.6l0.1,4.7c0,0-6.6,1.3-11.7,1.3c-8.7,0-12-4.6-12-14.8c0-10.6,4.6-15.4,12.6-15.4
		c8.1,0,12.2,4.2,12.2,13.2l-0.4,4.5H232c0.1,4.6,1.8,6.9,6.6,6.9C243.1,60.1,249.2,59.6,249.2,59.6z M244.1,48.3
		c0-5.8-1.7-7.7-6-7.7c-4.3,0-6.2,2.1-6.2,7.7H244.1z"/>
	<path class="st1" d="M256.4,36.1h6.2v3.5c0,0,4.9-3.2,9.8-4.1v6.3c-5.3,1-9.8,3.1-9.8,3.1V65h-6.3V36.1z"/>
	<path class="st1" d="M296.5,39.6c0,0-6.2-0.9-10-0.9c-3.6,0-6.8,1-6.8,4.9c0,3,1.4,3.9,7.8,4.9c7.4,1.2,10.2,2.5,10.2,8.1
		c0,6.8-4.2,9-11.2,9c-3.5,0-9.9-1-9.9-1l0.2-3.1c0,0,6.5,1,9.4,1c5,0,7.9-1.2,7.9-5.7c0-3.5-1.7-4.2-8.2-5.2
		c-6.7-1-9.7-2.3-9.7-7.9c0-6.3,5.2-8.2,10.2-8.2c4.3,0,10.2,1,10.2,1L296.5,39.6z"/>
	<path class="st1" d="M304.9,36.1l7.7,25.9h2.1l7.8-25.9h3.5L313.5,78H310l3.9-13h-4l-8.5-28.9H304.9z"/>
	<path class="st1" d="M331.8,65V36.1h3.4v2.1c0,0,4.9-2.7,9.4-2.7c7.9,0,9.7,3.7,9.7,14.3V65h-3.5v-15c0-8.5-0.9-11.3-6.7-11.3
		c-4.5,0-8.9,2.4-8.9,2.4v24H331.8z"/>
	<path class="st1" d="M380.9,36.2l-0.2,3c0,0-4.6-0.6-6.8-0.6c-6.9,0-9,3.1-9,11.4c0,9.1,1.4,12.4,9,12.4c2.2,0,6.9-0.5,6.9-0.5
		l0.1,3c0,0-5.2,0.7-7.6,0.7c-9.4,0-11.9-4.2-11.9-15.6c0-10.6,3.4-14.5,12-14.5C375.9,35.5,380.9,36.2,380.9,36.2z"/>
</g>
</svg>
