<?xml version="1.0" encoding="utf-8"?>
<!-- Generator: Adobe Illustrator 17.1.0, SVG Export Plug-In . SVG Version: 6.00 Build 0)  -->
<!DOCTYPE svg PUBLIC "-//W3C//DTD SVG 1.1//EN" "http://www.w3.org/Graphics/SVG/1.1/DTD/svg11.dtd">
<svg version="1.1" id="Layer_1" xmlns="http://www.w3.org/2000/svg" xmlns:xlink="http://www.w3.org/1999/xlink" x="0px" y="0px"
	 viewBox="0 0 38 38" enable-background="new 0 0 38 38" xml:space="preserve">
<g>
	<g>
		<g>
			<g>
				<path fill="#FFFFFF" d="M18.9,35.2c-0.1,0-0.1,0-0.2,0L6.9,30.3c-0.1,0-0.2-0.1-0.3-0.3l-5-11.8c-0.1-0.1-0.1-0.3,0-0.4L6.6,6.1
					c0-0.1,0.1-0.2,0.3-0.3L18.7,1c0.1,0,0.3,0,0.4,0l11.8,4.9c0.1,0,0.2,0.1,0.3,0.3L36.2,18c0.1,0.1,0.1,0.3,0,0.4l-4.9,11.8
					c0,0.1-0.1,0.2-0.3,0.3l-11.9,4.8C19,35.2,19,35.2,18.9,35.2z M7.5,29.5l11.4,4.7l11.5-4.6l4.7-11.4L30.3,6.7L18.9,2L7.4,6.7
					L2.7,18.1L7.5,29.5z"/>
			</g>
			<g>
				<path fill="#FFFFFF" d="M18.5,35.3c-0.3,0-0.5-0.2-0.5-0.5V2.4c0-0.3,0.2-0.5,0.5-0.5S19,2.2,19,2.4v32.4
					C19,35.1,18.8,35.3,18.5,35.3z"/>
			</g>
			<g>
				<path fill="#FFFFFF" d="M35.7,18.9c-0.1,0-0.2,0-0.3-0.1L6.7,7C6.4,6.8,6.2,6.4,6.3,6c0.2-0.4,0.6-0.6,1-0.4L36,17.5
					c0.4,0.2,0.6,0.6,0.4,1C36.3,18.8,36,18.9,35.7,18.9z"/>
			</g>
			<g>
				<path fill="#FFFFFF" d="M18.9,35.3c-0.2,0-0.3-0.1-0.4-0.2c-0.2-0.2-0.2-0.6,0-0.8l16.8-16.6c0.2-0.2,0.6-0.2,0.8,0
					c0.2,0.2,0.2,0.6,0,0.8L19.3,35.1C19.2,35.3,19.1,35.3,18.9,35.3z"/>
			</g>
			<g>
				<path fill="#FFFFFF" d="M30.8,30.5c-0.1,0-0.1,0-0.2,0l-11.9-4.9c-0.2-0.1-0.4-0.4-0.3-0.6c0.1-0.2,0.4-0.4,0.6-0.3L31,29.5
					c0.2,0.1,0.4,0.4,0.3,0.6C31.2,30.3,31,30.5,30.8,30.5z"/>
			</g>
			<g>
				<path fill="#FFFFFF" d="M18.9,35c-0.1,0-0.1,0-0.2-0.1L2,18.3c-0.1-0.1-0.1-0.3,0-0.4c0.1-0.1,0.3-0.1,0.4,0l16.7,16.6
					c0.1,0.1,0.1,0.3,0,0.4C19.1,35,19,35,18.9,35z"/>
			</g>
			<g>
				<path fill="#FFFFFF" d="M2.2,18.1"/>
			</g>
		</g>
		<g>
			<path fill="#FFFFFF" d="M1.7,18.3"/>
		</g>
		<g>
			<circle fill="#FFFFFF" cx="18.3" cy="24.7" r="1.2"/>
		</g>
		<g>
			<circle fill="#FFFFFF" cx="7.1" cy="6.2" r="1.2"/>
		</g>
		<g>
			<circle fill="#FFFFFF" cx="35.8" cy="18" r="1.2"/>
		</g>
		<g>
			<circle fill="#FFFFFF" cx="18.3" cy="34.6" r="1.2"/>
		</g>
	</g>
	<g>
		<circle fill="#FFFFFF" cx="2.2" cy="18" r="1.2"/>
	</g>
</g>
</svg>
