<!-- Generator: Adobe Illustrator 19.2.0, SVG Export Plug-In  -->
<svg version="1.1"
	 xmlns="http://www.w3.org/2000/svg" xmlns:xlink="http://www.w3.org/1999/xlink" xmlns:a="http://ns.adobe.com/AdobeSVGViewerExtensions/3.0/"
	 x="0px" y="0px" width="72px" height="64px" viewBox="0 0 72 64" style="enable-background:new 0 0 72 64;" xml:space="preserve">
<defs>
</defs>
<g>
	<path d="M36,16c-1.7,0-3,1.3-3,3v10H23c-1.7,0-3,1.3-3,3s1.3,3,3,3h10v10c0,1.7,1.3,3,3,3s3-1.3,3-3V35h10c1.7,0,3-1.3,3-3
		s-1.3-3-3-3H39V19C39,17.3,37.7,16,36,16z"/>
	<path d="M68,59V3c0-1.7-1.3-3-3-3H7C5.3,0,4,1.3,4,3v56H0v5h7h3v-5V6h52v53v5h3h7v-5H68z"/>
</g>
</svg>
