<?xml version="1.0" encoding="utf-8"?>
<!-- Generator: Adobe Illustrator 17.0.0, SVG Export Plug-In . SVG Version: 6.00 Build 0)  -->
<!DOCTYPE svg PUBLIC "-//W3C//DTD SVG 1.1//EN" "http://www.w3.org/Graphics/SVG/1.1/DTD/svg11.dtd">
<svg version="1.1" id="PLUG_1_" xmlns="http://www.w3.org/2000/svg" xmlns:xlink="http://www.w3.org/1999/xlink" x="0px" y="0px"
	 width="64px" height="64px" viewBox="0 0 64 64" enable-background="new 0 0 64 64" xml:space="preserve">
<g id="PLUG">
	<g>
		<path fill-rule="evenodd" clip-rule="evenodd" d="M54.836,21.812c-1.164-1.164-3.052-1.164-4.216,0l-7.026,7.026l-8.432-8.432
			l7.026-7.026c1.164-1.164,1.164-3.052,0-4.216C41.024,8,39.137,8,37.973,9.164l-7.026,7.026l-4.216-4.216l-5.972,5.972
			c-6.193,6.193-6.719,15.885-1.617,22.696L9.164,50.62C8,51.784,8,53.672,9.164,54.836c1.164,1.164,3.052,1.164,4.216,0
			l9.977-9.977c6.811,5.102,16.503,4.576,22.696-1.617l5.972-5.973l-4.216-4.216l7.026-7.026C56,24.863,56,22.976,54.836,21.812z"/>
	</g>
</g>
</svg>
