<?xml version="1.0" encoding="utf-8"?>
<!-- Generator: Adobe Illustrator 16.0.0, SVG Export Plug-In . SVG Version: 6.00 Build 0)  -->
<!DOCTYPE svg PUBLIC "-//W3C//DTD SVG 1.1//EN" "http://www.w3.org/Graphics/SVG/1.1/DTD/svg11.dtd">
<svg version="1.1" id="Layer_1" xmlns="http://www.w3.org/2000/svg" xmlns:xlink="http://www.w3.org/1999/xlink" x="0px" y="0px"
	 width="64px" height="64px" viewBox="0 0 64 64" enable-background="new 0 0 64 64" xml:space="preserve">
<g id="SQUARE__x2F__ADD_1_" enable-background="new">
	<g id="SQUARE__x2F__ADD">
		<g>
			<path d="M19,35h10v10c0,1.657,1.343,3,3,3s3-1.343,3-3V35h10c1.657,0,3-1.343,3-3s-1.343-3-3-3H35V19c0-1.657-1.343-3-3-3
				s-3,1.343-3,3v10H19c-1.657,0-3,1.343-3,3S17.343,35,19,35z M61,0H3C1.343,0,0,1.343,0,3v58c0,1.657,1.343,3,3,3h58
				c1.657,0,3-1.343,3-3V3C64,1.343,62.657,0,61,0z M58,58H6V6h52V58z"/>
		</g>
	</g>
</g>
</svg>
