<?xml version="1.0" encoding="UTF-8" standalone="no"?>
<svg width="73px" height="56px" viewBox="0 0 73 56" version="1.1" xmlns="http://www.w3.org/2000/svg" xmlns:xlink="http://www.w3.org/1999/xlink" xmlns:sketch="http://www.bohemiancoding.com/sketch/ns">
    <!-- Generator: Sketch 3.2.2 (9983) - http://www.bohemiancoding.com/sketch -->
    <title>browser</title>
    <desc>Created with Sketch.</desc>
    <defs></defs>
    <g id="Page-1" stroke="none" stroke-width="1" fill="none" fill-rule="evenodd" sketch:type="MSPage">
        <g id="browser" sketch:type="MSLayerGroup" fill="#000000">
            <g id="BROWSER_1_" sketch:type="MSShapeGroup">
                <g id="BROWSER">
                    <path d="M70,0 L12,0 C10.343,0 9,1.343 9,3 L9,53 C9,54.657 10.343,56 12,56 L70,56 C71.657,56 73,54.657 73,53 L73,3 C73,1.343 71.657,0 70,0 L70,0 Z M33,3 C34.657,3 36,4.343 36,6 C36,7.657 34.657,9 33,9 C31.343,9 30,7.657 30,6 C30,4.343 31.343,3 33,3 L33,3 Z M24,3 C25.657,3 27,4.343 27,6 C27,7.657 25.657,9 24,9 C22.343,9 21,7.657 21,6 C21,4.343 22.343,3 24,3 L24,3 Z M15,3 C16.657,3 18,4.343 18,6 C18,7.657 16.657,9 15,9 C13.343,9 12,7.657 12,6 C12,4.343 13.343,3 15,3 L15,3 Z M12,39 L12,53 L70,53 L70,12 L12,12 L12,24 L9,24 L9,39 L12,39 Z" id="Shape"></path>
                    <path d="M28,31.5 C28,30.725625 27.664875,30.029125 27.131125,29.54875 L27.131125,29.54875 L18.381125,21.67375 C17.915625,21.2555 17.299625,21 16.625,21 C15.175125,21 14,22.175125 14,23.625 C14,24.399375 14.336,25.095875 14.868875,25.57625 L14.868875,25.57625 L18.53425,28.875 L2.625,28.875 C1.175125,28.875 0,30.050125 0,31.5 C0,32.949875 1.175125,34.125 2.625,34.125 L2.625,34.125 L18.53425,34.125 L14.86975,37.42375 C14.336,37.905 14,38.600625 14,39.375 C14,40.824875 15.175125,42 16.625,42 C17.299625,42 17.915625,41.7445 18.381125,41.32625 L18.381125,41.32625 L27.131125,33.45125 C27.664875,32.97175 28,32.274375 28,31.5 L28,31.5 L28,31.5 Z" id="Shape-2"></path>
                </g>
            </g>
        </g>
    </g>
</svg>