<!-- Generator: Adobe Illustrator 19.2.0, SVG Export Plug-In  -->
<svg version="1.1"
	 xmlns="http://www.w3.org/2000/svg" xmlns:xlink="http://www.w3.org/1999/xlink" xmlns:a="http://ns.adobe.com/AdobeSVGViewerExtensions/3.0/"
	 x="0px" y="0px" width="42px" height="58px" viewBox="0 0 42 58" style="enable-background:new 0 0 42 58;" xml:space="preserve">
<defs>
</defs>
<g id="IPHONE_1_">
	<path d="M39,0H11C9.3,0,8,1.3,8,3v16h3V6h28v42H11V35H8v20c0,1.7,1.3,3,3,3h28c1.7,0,3-1.3,3-3V3C42,1.3,40.7,0,39,0z M25,55
		c-1.1,0-2-0.9-2-2s0.9-2,2-2s2,0.9,2,2S26.1,55,25,55z"/>
	<path id="Shape_2_" d="M28,26.5c0-0.8-0.3-1.5-0.9-2l0,0l-8.8-7.9c-0.5-0.4-1.1-0.7-1.8-0.7c-1.4,0-2.6,1.2-2.6,2.6
		c0,0.8,0.3,1.5,0.9,2l0,0l3.7,3.3H2.6c-1.4,0-2.6,1.2-2.6,2.6s1.2,2.6,2.6,2.6l0,0h15.9l-3.7,3.3c-0.5,0.5-0.9,1.2-0.9,2
		c0,1.4,1.2,2.6,2.6,2.6c0.7,0,1.3-0.3,1.8-0.7l0,0l8.8-7.9C27.7,28,28,27.3,28,26.5L28,26.5z"/>
</g>
</svg>
