<?xml version="1.0" ?><!DOCTYPE svg  PUBLIC '-//W3C//DTD SVG 1.1//EN'  'http://www.w3.org/Graphics/SVG/1.1/DTD/svg11.dtd'><svg enable-background="new 0 0 56.693 56.693" height="56.693px" id="Layer_1" version="1.1" viewBox="0 0 56.693 56.693" width="56.693px" xml:space="preserve" xmlns="http://www.w3.org/2000/svg" xmlns:xlink="http://www.w3.org/1999/xlink"><g><path d="M34.693,18.318v4.431c0,0.382,0.215,0.732,0.556,0.906c0.146,0.074,0.305,0.111,0.463,0.111   c0.21,0,0.421-0.066,0.598-0.195l9.37-6.805c0.264-0.191,0.42-0.498,0.42-0.824s-0.156-0.633-0.42-0.824l-9.37-6.805   C36,8.087,35.59,8.055,35.249,8.228c-0.341,0.175-0.556,0.524-0.556,0.907v4.431H14.07c-5.802,0-10.521,4.72-10.521,10.521v7.928   c0,1.312,1.064,2.377,2.376,2.377s2.376-1.064,2.376-2.377v-7.928c0-3.181,2.588-5.769,5.77-5.769H34.693z" fill="#474A56"/><path d="M50.512,21.711c-1.312,0-2.375,1.064-2.375,2.375v7.928c0,3.184-2.588,5.771-5.77,5.771H21.646v-4.434   c0-0.381-0.216-0.732-0.556-0.906c-0.34-0.172-0.752-0.143-1.061,0.084l-9.369,6.805c-0.265,0.191-0.421,0.498-0.421,0.824   s0.156,0.633,0.42,0.824l9.37,6.807c0.178,0.129,0.387,0.193,0.598,0.193c0.158,0,0.316-0.037,0.463-0.109   c0.34-0.174,0.556-0.525,0.556-0.908v-4.43h20.722c5.801,0,10.521-4.721,10.521-10.521v-7.928   C52.888,22.776,51.824,21.711,50.512,21.711z" fill="#474A56"/></g></svg>