<?xml version="1.0" encoding="utf-8"?>
<!-- Generator: Adobe Illustrator 17.0.0, SVG Export Plug-In . SVG Version: 6.00 Build 0)  -->
<!DOCTYPE svg PUBLIC "-//W3C//DTD SVG 1.1//EN" "http://www.w3.org/Graphics/SVG/1.1/DTD/svg11.dtd">
<svg version="1.1" id="TERMINAL_1_" xmlns="http://www.w3.org/2000/svg" xmlns:xlink="http://www.w3.org/1999/xlink" x="0px"
	 y="0px" width="64px" height="64px" viewBox="0 0 64 64" enable-background="new 0 0 64 64" xml:space="preserve">
<g id="TERMINAL">
	<g>
		<path fill-rule="evenodd" clip-rule="evenodd" d="M30,32c0-0.002,0-0.005,0-0.007c0-0.002,0-0.005,0-0.007
			c0-0.848-0.352-1.613-0.918-2.159l0.001-0.001l-18-18l-0.008,0.008C10.536,11.318,9.806,11,9,11c-1.657,0-3,1.343-3,3
			c0,0.91,0.406,1.725,1.046,2.275l15.718,15.718L6.84,47.917l0.001,0.001C6.321,48.458,6,49.191,6,50c0,1.657,1.343,3,3,3
			c0.809,0,1.543-0.321,2.082-0.841l0.001,0.001l18-18l-0.001-0.001C29.648,33.613,30,32.848,30,32z M55.5,47h-23
			c-1.381,0-2.5,1.119-2.5,2.5v1c0,1.381,1.119,2.5,2.5,2.5h23c1.381,0,2.5-1.119,2.5-2.5v-1C58,48.119,56.881,47,55.5,47z"/>
	</g>
</g>
</svg>
