<?xml version="1.0" encoding="UTF-8" standalone="no"?>
<svg width="30px" height="29px" viewBox="0 0 30 29" version="1.1" xmlns="http://www.w3.org/2000/svg" xmlns:xlink="http://www.w3.org/1999/xlink" xmlns:sketch="http://www.bohemiancoding.com/sketch/ns">
    <!-- Generator: Sketch 3.2 (9964) - http://www.bohemiancoding.com/sketch -->
    <title>Fill 213 + Fill 132</title>
    <desc>Created with Sketch.</desc>
    <defs></defs>
    <g id="Welcome" stroke="none" stroke-width="1" fill="none" fill-rule="evenodd" sketch:type="MSPage">
        <g id="Mobile-Portrait" sketch:type="MSArtboardGroup" transform="translate(-18.000000, -136.000000)" fill="#898989">
            <g id="Body-header" sketch:type="MSLayerGroup" transform="translate(0.000000, 76.000000)">
                <g id="Trash-5---header" transform="translate(18.000000, 60.000000)" sketch:type="MSShapeGroup">
                    <g id="Fill-213-+-Fill-132">
                        <path d="M15.147229,3.41156302 C8.64035399,3.41156302 3.36597899,8.50406302 3.36597899,14.786563 C3.36597899,21.0686255 8.64035399,26.161563 15.147229,26.161563 C21.654104,26.161563 26.928479,21.0686255 26.928479,14.786563 C26.928479,8.50406302 21.654104,3.41156302 15.147229,3.41156302 L15.147229,3.41156302 Z M15.147229,28.786563 C7.14051024,28.786563 0.64722899,22.5185005 0.64722899,14.786563 C0.64722899,7.05462552 7.14051024,0.786563022 15.147229,0.786563022 C23.1539477,0.786563022 29.647229,7.05462552 29.647229,14.786563 C29.647229,22.5185005 23.1539477,28.786563 15.147229,28.786563 L15.147229,28.786563 Z" id="Fill-213"></path>
                        <path d="M19.3591402,12.5781308 C19.3591402,12.1488205 18.9954111,11.8022688 18.5466402,11.8022688 C18.0981402,11.8022688 17.7341402,12.1488205 17.7341402,12.5781308 L17.7341402,19.0436481 C17.7341402,19.4729584 18.0981402,19.8195102 18.5466402,19.8195102 C18.9954111,19.8195102 19.3591402,19.4729584 19.3591402,19.0436481 L19.3591402,12.5781308 L19.3591402,12.5781308 Z M16.1091402,12.5781308 C16.1091402,12.1488205 15.7454111,11.8022688 15.2966402,11.8022688 C14.8481402,11.8022688 14.4841402,12.1488205 14.4841402,12.5781308 L14.4841402,19.0436481 C14.4841402,19.4729584 14.8481402,19.8195102 15.2966402,19.8195102 C15.7454111,19.8195102 16.1091402,19.4729584 16.1091402,19.0436481 L16.1091402,12.5781308 L16.1091402,12.5781308 Z M12.8591402,12.5781308 C12.8591402,12.1488205 12.4954111,11.8022688 12.0466402,11.8022688 C11.5981402,11.8022688 11.2341402,12.1488205 11.2341402,12.5781308 L11.2341402,19.0436481 C11.2341402,19.4729584 11.5981402,19.8195102 12.0466402,19.8195102 C12.4954111,19.8195102 12.8591402,19.4729584 12.8591402,19.0436481 L12.8591402,12.5781308 L12.8591402,12.5781308 Z M20.9841402,11.0264067 L20.9841402,20.5953722 C20.9841402,21.0246826 20.6204111,21.3712343 20.1716402,21.3712343 L10.4216402,21.3712343 C9.97314025,21.3712343 9.60914025,21.0246826 9.60914025,20.5953722 L9.60914025,10.2505446 L20.9841402,10.2505446 L20.9841402,11.0264067 L20.9841402,11.0264067 Z M8.79664025,8.6988205 C8.79664025,8.26951015 9.16064025,7.92295843 9.60914025,7.92295843 L13.6716402,7.92295843 L13.6716402,7.14709636 C13.6716402,6.71778601 14.0356402,6.37123429 14.4841402,6.37123429 L16.1091402,6.37123429 C16.5579111,6.37123429 16.9216402,6.71778601 16.9216402,7.14709636 L16.9216402,7.92295843 L20.9841402,7.92295843 C21.4329111,7.92295843 21.7966402,8.26951015 21.7966402,8.6988205 L21.7966402,9.47468257 L8.79664025,9.47468257 L8.79664025,8.6988205 L8.79664025,8.6988205 Z" id="Fill-132"></path>
                    </g>
                </g>
            </g>
        </g>
    </g>
</svg>