<?xml version="1.0" encoding="UTF-8" standalone="no"?>
<svg width="64px" height="52px" viewBox="0 0 64 52" version="1.1" xmlns="http://www.w3.org/2000/svg" xmlns:xlink="http://www.w3.org/1999/xlink" xmlns:sketch="http://www.bohemiancoding.com/sketch/ns">
    <title>Twitter</title>
    <path id="Fill-18_1_" sketch:type="MSShapeGroup" d="M43.5,0c5.1-0.1,7.8,1.8,10.4,4.1c2.2-0.2,5-1.4,6.7-2.3
        c0.5-0.3,1.1-0.6,1.6-0.9c-1,2.6-2.3,4.6-4.3,6.2c-0.4,0.3-0.9,0.8-1.4,1v0c2.8,0,5.2-1.3,7.4-2v0c-1.2,1.9-2.8,3.8-4.5,5.1
        c-0.7,0.5-1.4,1.1-2,1.6c0,3,0,5.9-0.6,8.4c-3.3,14.7-12,24.7-25.7,29c-4.9,1.5-12.9,2.2-18.6,0.8c-2.8-0.7-5.3-1.5-7.7-2.5
        c-1.3-0.6-2.5-1.2-3.7-1.9C0.8,46.5,0.4,46.3,0,46c1.3,0,2.8,0.4,4.2,0.2C5.5,46,6.8,46,7.9,45.8c3-0.6,5.6-1.5,7.9-2.9
        c1.1-0.6,2.8-1.4,3.6-2.3c-1.5,0-2.8-0.3-3.9-0.7c-4.2-1.5-6.7-4.3-8.3-8.4c1.3,0.1,5,0.5,5.9-0.2c-1.6-0.1-3.2-1-4.3-1.7
        c-3.4-2.1-6.2-5.7-6.2-11.2c0.4,0.2,0.9,0.4,1.3,0.6c0.9,0.4,1.7,0.6,2.8,0.8c0.4,0.1,1.3,0.3,1.8,0.2H8.4c-0.7-0.8-1.7-1.3-2.4-2.1
        C3.8,15,1.7,10.8,3,5.8c0.3-1.3,0.9-2.4,1.4-3.4c0,0,0,0,0.1,0C4.7,3,5.3,3.4,5.7,3.8c1.1,1.4,2.5,2.6,3.9,3.7
        c4.8,3.8,9.1,6.1,16,7.8c1.8,0.4,3.8,0.8,5.9,0.8c-0.6-1.7-0.4-4.5,0.1-6.2c1.2-4.2,3.7-7.2,7.4-8.8c0.9-0.4,1.9-0.7,2.9-0.9
        C42.5,0.1,43,0.1,43.5,0"/>

</svg>
