<?xml version="1.0" encoding="utf-8"?>
<!-- Generator: Adobe Illustrator 16.0.0, SVG Export Plug-In . SVG Version: 6.00 Build 0)  -->
<!DOCTYPE svg PUBLIC "-//W3C//DTD SVG 1.1//EN" "http://www.w3.org/Graphics/SVG/1.1/DTD/svg11.dtd">
<svg version="1.1" id="Layer_1" xmlns="http://www.w3.org/2000/svg" xmlns:xlink="http://www.w3.org/1999/xlink" x="0px" y="0px"
	 width="64px" height="64px" viewBox="0 0 64 64" enable-background="new 0 0 64 64" xml:space="preserve">
<g id="WIFI_3_1_" enable-background="new    ">
	<g id="WIFI_3">
		<g>
			<path d="M32,49c-3.314,0-6,2.686-6,6s2.686,6,6,6c3.314,0,6-2.686,6-6S35.314,49,32,49z M32,34
				c-5.343,0-10.062,2.629-12.968,6.654l3.302,4.256C24.519,41.938,28.029,40,32,40c3.971,0,7.482,1.938,9.666,4.91l3.302-4.256
				C42.062,36.629,37.343,34,32,34z M32,4C19.747,4,8.622,8.8,0.378,16.61l3.696,4.764C11.283,14.34,21.132,10,32,10
				s20.717,4.34,27.926,11.374l3.696-4.764C55.378,8.8,44.253,4,32,4z M9.637,28.544l3.739,4.819C17.954,28.242,24.59,25,32,25
				s14.046,3.242,18.624,8.364l3.739-4.819C48.721,22.666,40.791,19,32,19S15.279,22.666,9.637,28.544z"/>
		</g>
	</g>
</g>
</svg>
